# xmcd
#
# Track frame offsets:
#	150
#	14027
#	25905
#	43397
#	54427
#	67667
#	78400
#	93945
#	106777
#	116870
#
# Disc length: 1796 seconds
#
# Revision: 0
# Processed by: cddbd v1.5.1PL0 Copyright (c) Steve Scherf et al.
# Submitted via: EasyCDDAExtractor 4.6.0.1
#
DISCID=7c07020a
DTITLE=Don Williams - Best of Don Williams
DYEAR=1999
DGENRE=Country
TTITLE0=You're My Best Friend
TTITLE1=Tulsa Time
TTITLE2=I Believe In You
TTITLE3=Spend Some Time With Me
TTITLE4=Where Do I Go From Here
TTITLE5=Always Something There To Remind Me
TTITLE6=Tears
TTITLE7=Amanda
TTITLE8=Take My Hand For A While
TTITLE9=Good Ol' Boys Like Me
EXTD=
EXTT0=
EXTT1=
EXTT2=
EXTT3=
EXTT4=
EXTT5=
EXTT6=
EXTT7=
EXTT8=
EXTT9=
PLAYORDER=
